Ce torrent vous est offer par MWD.
 
http://www.amazon.fr/Franck-Dubosc-Z%C3%A9nith-jvous-racont%C3%A9/dp/B0000AKPDX

#  Acteurs : Franck Dubosc
# Langue : Français
# Studio : Universal Pictures
# Date de sortie du DVD : 21 octobre 2003
# Durée : 110 minutes

Amazon.fr
Toujours charmeur, toujours macho mais jamais vulgaire (mais, précise-t-il, "je peux faire un spectacle vulgaire :
 je suis bilingue"), Franck Dubosc s'est produit trois soirs durant au Zénith de Paris en octobre 2002. Fidèle à
 son mot d'ordre ("Pour toi public"), Dubosc joue avec les spectateurs, qui en redemandent. Il les apostrophe, 
discute avec eux, passe dans les rangs, grimpe en haut des gradins de cette (trop ?) grande salle, glissant un 
mot au passage ("Tiens, t'as changé de mari, toi ?"). Pas de doute, il a peaufiné son personnage, celui du bellâtre
 nostalgique d'un temps que les moins de 20 ans ne peuvent pas connaître, et nous offre quelques moments 
réellement hilarants, notamment grâce à des invités dont on taira les noms pour préserver l'effet de surprise. 
Très fidèle à l'esprit du spectacle, le DVD propose de sympathiques bonus, présentés par le maître de cérémonie 
en personne. Franck Dubosc y pratique l'autodérision avec élégance dans un bêtisier joliment intitulé 
"Foutez-vous de ma gueule" et un making of de 10 minutes nous fait découvrir les coulisses du spectacle. Mais 
le supplément le plus intéressant est une plongée à l'écoute des micros ouverts des techniciens durant le 
spectacle, grâce à quoi on s'aperçoit d'une part que ceux-ci n'hésitent pas à brocarder (gentiment) "l'idole" 
et d'autre part qu'ils ne chantent guère mieux que Dubosc ! --Michaël Cuq

Synopsis
Régnant en maître sur la lugubre demeure Usher avec sa soeur Madeline, Roderick Usher est un personnage 
étrange et inquiétant.Ses sens sont si sensibles que le moindre bruit, la moindre odeur ou le moindre contact
 furtif, lui provoquent des douleurs atroces.Lorsque Philip Wintrop vient rejoindre Madeline afin de l'épouser,
Roderick voit d'un mauvais oeil cette union.Pour Philip, il devient évident que, la maison n'est pas une simple 
demeure...c'est aussi une tombe! 

TorrentDubosc - Je vous ai pas raccontéDubosc - Je vous ai pas raconte.avi
Format                           : AVI
Format/Info                      : Audio Video Interleave
File size                        : 995 MiB
Duration                         : 1h 50mn
Overall bit rate                 : 1 258 Kbps
Writing application              : Lavf52.14.0

Video
Format                           : xvid
Codec ID                         : xvid
Duration                         : 1h 50mn
Bit rate                         : 1 054 Kbps
Width                            : 600 pixels
Height                           : 450 pixels
Display aspect ratio             : 4:3
Frame rate                       : 25.000 fps
Bits/(Pixel*Frame)               : 0.156
Stream size                      : 833 MiB (84%)

Audio
ID                               : 1
Format                           : MPEG Audio
Format version                   : Version 1
Format profile                   : Layer 3
Format_Settings_Mode             : Joint stereo
Format_Settings_ModeExtension    : MS Stereo
Codec ID                         : 55
Codec ID/Hint                    : MP3
Duration                         : 1h 50mn
Bit rate mode                    : Constant
Bit rate                         : 192 Kbps
Channel(s)                       : 2 channels
Sampling rate                    : 44.1 KHz
Stream size                      : 152 MiB (15%)
Alignment                        : Aligned on interleaves
Interleave, duration             : 26 ms (0.65 video frame)
Writing library                  : LAME3.97